<?xml version="1.0" encoding="UTF-8"?>
<svg xmlns="http://www.w3.org/2000/svg" version="1.1" viewBox="0 0 566.93 566.93">
  <!-- Generator: Adobe Illustrator 29.8.2, SVG Export Plug-In . SVG Version: 2.1.1 Build 3)  -->
  <defs>
    <style>
      .st0 {
        fill: #fff;
      }
    </style>
  </defs>
  <g id="mail">
    <g>
      <polygon class="st0" points="-970.25 272.75 -1068.28 195.24 -872.82 195.24 -970.25 272.75"/>
      <path class="st0" d="M-1090.97,349.31v-141.85l112.64,89.4c3.82,3.08,8.44,4.32,12.92,1.73l115.27-91.13v141.85c0,.24-2.1,2.12-2.63,2.6h-235.57c-.53-.48-2.63-2.36-2.63-2.6Z"/>
      <path class="st0" d="M-752.21,218.43c-17.18-67.92-65.48-123.27-129.19-151.55-22.76-10.11-47.54-17.23-72.57-15.67-1.91-.16-3.83-.34-5.78-.54-1.97-.21-3.94-.33-5.91-.33h-9.98c-1.84,0-3.69.09-5.52.28-2.02.2-4.01.4-5.97.59-32.09-.75-65.03,10.7-92.88,26.27-63.46,35.48-112.37,103.98-113.93,177.99-.92,11.81.69,24.73,0,36.66,4.44,95.09,77.99,179.13,172.63,201.06,12.23,2.83,27.38,4.49,42.91,4.95,5.94.18,11.94.18,17.84,0,13.83-.41,27.17-1.78,38.17-4.12,96.41-20.53,170.81-105.89,175.36-204.51,1.09-23.65.65-48.06-5.18-71.08ZM-851.41,172.51c13.72,1.19,24.1,13.1,24.86,26.63-2.9,48.5,3.77,101.33,0,149.33-.92,11.84-7.86,21.41-19.03,25.47-81.11,2.62-162.79.35-244.11,1.15-13.44-1.16-23.67-12.61-24.83-25.79v-150.99c1.18-13.15,9.76-22.49,22.45-25.55l240.66-.25Z"/>
      <polygon class="st0" points="-970.25 272.75 -1068.28 195.24 -872.82 195.24 -970.25 272.75"/>
      <path class="st0" d="M-850.14,207.46v141.85c0,.24-2.1,2.12-2.63,2.6h-235.57c-.53-.48-2.63-2.36-2.63-2.6v-141.85l112.64,89.4c3.82,3.08,8.44,4.32,12.92,1.73l115.27-91.13Z"/>
      <path class="st0" d="M-850.14,207.46v141.85c0,.24-2.1,2.12-2.63,2.6h-235.57c-.53-.48-2.63-2.36-2.63-2.6v-141.85l112.64,89.4c3.82,3.08,8.44,4.32,12.92,1.73l115.27-91.13Z"/>
      <polygon class="st0" points="-872.82 195.24 -970.25 272.75 -1068.28 195.24 -872.82 195.24"/>
    </g>
  </g>
  <g id="instagram">
    <g>
      <path class="st0" d="M-338.55,329.41c-60.51,5.08-69.06-85.52-10.14-92.62,62.8-7.56,70.86,87.51,10.14,92.62Z"/>
      <path class="st0" d="M-229.15,277.8c-.24-51.43,9.96-104.78-58.18-108.61-18.01-1.01-39.32-.69-57.53-.66-52.02.1-107.84-9.1-111.66,58.96-1.16,20.55-.04,42.2.07,62.55.3,51.12-9.26,102.93,58.19,106.72,20.55,1.15,42.18.04,62.53-.08,50.95-.29,102.88,9.23,106.66-58.22,1.12-19.91.01-40.96-.08-60.66ZM-274.11,302.87c-15.16,54.77-87.08,69.5-123.61,26.05-35.13-41.79-10.22-110.62,44.29-116.77,52.23-5.9,93.57,39.21,79.32,90.72ZM-259.47,222.74c-14.37,9.37-32.19-7.72-23.5-22.56,2.01-3.44,7.01-7.3,10.98-7.97,18.78-3.16,27.88,20.53,12.52,30.53Z"/>
      <path class="st0" d="M-100.26,264.02c-3.27-87.84-63.38-169.45-144.96-205.78-24.95-11.11-52.14-18.67-79.57-16.97-3.1-.26-6.26-.57-9.48-.95h-27.47c-109.91,1.95-200.39,90.4-220.32,195.93-5.48,29.02-5.42,70.94.69,99.82,18.1,85.46,84.73,156.86,168.34,181.71,18.67,5.55,41.25,8.45,63.92,8.8,2.85.04,5.7.04,8.55,0,20.1-.27,39.89-2.55,56.65-6.79,100.03-25.28,181.92-112.97,183.65-218.81.83-11.99-.61-24.87,0-36.96ZM-297.75,143.6c66.33,2.49,91.77,27.84,94.26,94.31,1.07,28.54,1.07,61.59,0,90.13-2.48,66.37-27.97,91.83-94.26,94.31-28.53,1.07-61.56,1.07-90.09,0-66.39-2.49-91.78-27.89-94.26-94.31-1.08-28.79-1.12-62.3,0-91.08,2.48-63.64,26.73-90.11,90.79-93.04,29.62-1.36,63.92-1.43,93.56-.32Z"/>
      <path class="st0" d="M-338.55,329.41c-60.51,5.08-69.06-85.52-10.14-92.62,62.8-7.56,70.86,87.51,10.14,92.62Z"/>
      <path class="st0" d="M-229.15,277.8c-.24-51.43,9.96-104.78-58.18-108.61-18.01-1.01-39.32-.69-57.53-.66-52.02.1-107.84-9.1-111.66,58.96-1.16,20.55-.04,42.2.07,62.55.3,51.12-9.26,102.93,58.19,106.72,20.55,1.15,42.18.04,62.53-.08,50.95-.29,102.88,9.23,106.66-58.22,1.12-19.91.01-40.96-.08-60.66ZM-274.11,302.87c-15.16,54.77-87.08,69.5-123.61,26.05-35.13-41.79-10.22-110.62,44.29-116.77,52.23-5.9,93.57,39.21,79.32,90.72ZM-259.47,222.74c-14.37,9.37-32.19-7.72-23.5-22.56,2.01-3.44,7.01-7.3,10.98-7.97,18.78-3.16,27.88,20.53,12.52,30.53Z"/>
      <path class="st0" d="M-338.55,329.41c-60.51,5.08-69.06-85.52-10.14-92.62,62.8-7.56,70.86,87.51,10.14,92.62Z"/>
      <path class="st0" d="M-338.55,329.41c-60.51,5.08-69.06-85.52-10.14-92.62,62.8-7.56,70.86,87.51,10.14,92.62Z"/>
    </g>
  </g>
  <g id="telp">
    <path class="st0" d="M511.07,268.99c.02-.06.02-.12.02-.18v-2.51c-.14-7.38-.71-14.69-1.68-21.89-12.42-92.53-90.73-168.51-182.11-185.66-11.76-2.21-26.2-3.43-40.95-3.63-2.76-.04-5.54-.04-8.31,0-15.97.2-31.78,1.62-44.43,4.3-84.66,17.95-156.21,89.4-173.67,174.24-2.59,12.59-3.94,28.37-4.09,44.26v6.85c.17,14.41,1.3,28.55,3.36,40.07,16.33,91.65,92.55,171.27,185.35,183.79,7.11.97,14.32,1.53,21.61,1.68,1.4.11,2.86-.06,4.26-.01.12.01.23-.03.34-.03,3.14.08,6.27.08,9.45.01.1,0,.2.03.3.03h7.66c.12,0,.22-.04.34-.04,2.83.08,5.64.04,8.55,0,.11,0,.21.04.32.04h2.5c5.34-.15,10.66-.53,15.94-1.12,96.64-10.76,180.88-93.13,193.74-190.88.76-5.75,1.27-11.56,1.52-17.41v-3.39c0-.06,0-.12-.02-.18,0-.04-.01-.08-.01-.12.03-3.17.03-6.44,0-9.47,0-.04.01-.08.01-.12.02-.06.02-.12.02-.18v-8.57c0-.06,0-.12-.02-.18,0-.04-.01-.08-.01-.12.03-3.11.03-6.33,0-9.46,0-.04.01-.08.01-.12ZM179.63,272.53c-13.49-26.36-23.15-52.45-6.47-80.15,3.48-5.77,18.35-22.23,23.74-25.96,1.48-1.02,3.38-1.86,5.16-1.95,2.82-.16,5.19,1.27,7.34,2.87,7.82,5.81,36.07,34.25,42.14,42.15,3.83,4.98,4.43,8,.79,13.25-11.06,15.96-41.58,28.09-27.71,51.83,11.2,19.18,49.69,56.17,68.78,67.87,5.78,3.54,9.62,4.61,16.62,3.64,12.72-1.76,25.88-26.12,36.85-31.47,4.33-2.11,6.73-1.62,10.64,1,7.05,4.72,35.72,34.16,41.79,41.62,4.87,6,6.02,8.81,1.23,15.47-15.7,21.88-43.35,33.06-69.59,27.15-59.34-13.37-124.13-74.18-151.31-127.32Z"/>
  </g>
</svg>